<svg width="126" height="40" viewBox="0 0 126 40" fill="none" xmlns="http://www.w3.org/2000/svg">
<path d="M9.83955 25.1807V27.5862H0.17334V12.2924H2.95403V25.1807H9.83955Z" fill="#5F6368"/>
<path d="M13.5585 19.9283C13.5585 20.7669 13.6615 21.532 13.8675 22.2234C14.0735 22.9002 14.3677 23.4814 14.7502 23.9669C15.1475 24.4377 15.6256 24.8055 16.1847 25.0703C16.7438 25.3352 17.3764 25.4676 18.0826 25.4676C18.7741 25.4676 19.3994 25.3352 19.9585 25.0703C20.5176 24.8055 20.9884 24.4377 21.3709 23.9669C21.7682 23.4814 22.0698 22.9002 22.2758 22.2234C22.4817 21.532 22.5847 20.7669 22.5847 19.9283C22.5847 19.0897 22.4817 18.332 22.2758 17.6552C22.0698 16.9637 21.7682 16.3825 21.3709 15.9117C20.9884 15.4262 20.5176 15.051 19.9585 14.7862C19.3994 14.5214 18.7741 14.389 18.0826 14.389C17.3764 14.389 16.7438 14.5214 16.1847 14.7862C15.6256 15.051 15.1475 15.4262 14.7502 15.9117C14.3677 16.3972 14.0735 16.9784 13.8675 17.6552C13.6615 18.332 13.5585 19.0897 13.5585 19.9283ZM25.4978 19.9283C25.4978 21.2377 25.2992 22.3926 24.902 23.3931C24.5194 24.3936 23.9898 25.2322 23.313 25.909C22.6509 26.571 21.8712 27.0713 20.9737 27.4097C20.0762 27.748 19.1199 27.9172 18.1047 27.9172C17.0895 27.9172 16.1259 27.748 15.2137 27.4097C14.3162 27.0713 13.5291 26.571 12.8523 25.909C12.1902 25.2322 11.6606 24.3936 11.2633 23.3931C10.8661 22.3926 10.6675 21.2377 10.6675 19.9283C10.6675 18.6189 10.8661 17.4713 11.2633 16.4855C11.6606 15.4851 12.1976 14.6464 12.8744 13.9697C13.5659 13.2929 14.3603 12.7853 15.2578 12.4469C16.1553 12.1085 17.1043 11.9393 18.1047 11.9393C19.1052 11.9393 20.0541 12.1085 20.9516 12.4469C21.8491 12.7853 22.6289 13.2929 23.2909 13.9697C23.9677 14.6464 24.5047 15.4851 24.902 16.4855C25.2992 17.4713 25.4978 18.6189 25.4978 19.9283Z" fill="#5F6368"/>
<path d="M35.9056 14.389C34.3313 14.389 33.1249 14.8818 32.2863 15.8676C31.4624 16.8386 31.0504 18.1922 31.0504 19.9283C31.0504 20.7522 31.146 21.5099 31.3373 22.2014C31.5433 22.8782 31.8375 23.4593 32.2201 23.9448C32.6173 24.4303 33.1028 24.8129 33.6766 25.0924C34.2651 25.3572 34.9493 25.4897 35.729 25.4897C36.2145 25.4897 36.6339 25.4749 36.987 25.4455C37.3401 25.4014 37.6196 25.3499 37.8256 25.291V19.7959H40.6063V27.1448C40.2237 27.292 39.5764 27.4538 38.6642 27.6303C37.752 27.8069 36.7001 27.8952 35.5083 27.8952C34.4049 27.8952 33.3971 27.7186 32.4849 27.3655C31.5727 27.0124 30.7929 26.4975 30.1456 25.8207C29.5129 25.1439 29.0201 24.3126 28.667 23.3269C28.3139 22.3412 28.1373 21.2083 28.1373 19.9283C28.1373 18.6483 28.3286 17.5154 28.7111 16.5297C29.1083 15.5439 29.6453 14.7126 30.3221 14.0359C30.9989 13.3444 31.7934 12.8221 32.7056 12.469C33.6178 12.1159 34.5888 11.9393 35.6187 11.9393C36.3249 11.9393 36.9502 11.9908 37.4945 12.0938C38.0536 12.1821 38.5318 12.2851 38.929 12.4028C39.3263 12.5205 39.6499 12.6455 39.9001 12.7779C40.1649 12.9103 40.3488 13.006 40.4518 13.0648L39.6132 15.3379C39.1718 15.0731 38.6201 14.8524 37.958 14.6759C37.3106 14.4846 36.6265 14.389 35.9056 14.389Z" fill="#5F6368"/>
<path d="M46.2999 19.9283C46.2999 20.7669 46.4029 21.532 46.6089 22.2234C46.8148 22.9002 47.1091 23.4814 47.4916 23.9669C47.8889 24.4377 48.367 24.8055 48.9261 25.0703C49.4852 25.3352 50.1178 25.4676 50.824 25.4676C51.5155 25.4676 52.1408 25.3352 52.6999 25.0703C53.259 24.8055 53.7298 24.4377 54.1123 23.9669C54.5095 23.4814 54.8112 22.9002 55.0171 22.2234C55.2231 21.532 55.3261 20.7669 55.3261 19.9283C55.3261 19.0897 55.2231 18.332 55.0171 17.6552C54.8112 16.9637 54.5095 16.3825 54.1123 15.9117C53.7298 15.4262 53.259 15.051 52.6999 14.7862C52.1408 14.5214 51.5155 14.389 50.824 14.389C50.1178 14.389 49.4852 14.5214 48.9261 14.7862C48.367 15.051 47.8889 15.4262 47.4916 15.9117C47.1091 16.3972 46.8148 16.9784 46.6089 17.6552C46.4029 18.332 46.2999 19.0897 46.2999 19.9283ZM58.2392 19.9283C58.2392 21.2377 58.0406 22.3926 57.6433 23.3931C57.2608 24.3936 56.7311 25.2322 56.0544 25.909C55.3923 26.571 54.6125 27.0713 53.7151 27.4097C52.8176 27.748 51.8613 27.9172 50.8461 27.9172C49.8309 27.9172 48.8672 27.748 47.9551 27.4097C47.0576 27.0713 46.2705 26.571 45.5937 25.909C44.9316 25.2322 44.402 24.3936 44.0047 23.3931C43.6075 22.3926 43.4089 21.2377 43.4089 19.9283C43.4089 18.6189 43.6075 17.4713 44.0047 16.4855C44.402 15.4851 44.939 14.6464 45.6157 13.9697C46.3072 13.2929 47.1017 12.7853 47.9992 12.4469C48.8967 12.1085 49.8456 11.9393 50.8461 11.9393C51.8466 11.9393 52.7955 12.1085 53.693 12.4469C54.5905 12.7853 55.3702 13.2929 56.0323 13.9697C56.7091 14.6464 57.2461 15.4851 57.6433 16.4855C58.0406 17.4713 58.2392 18.6189 58.2392 19.9283Z" fill="#5F6368"/>
<path d="M64.7619 6.89655C64.7619 3.08769 67.8496 0 71.6584 0H118.555C122.364 0 125.452 3.08769 125.452 6.89655V33.1034C125.452 36.9123 122.364 40 118.555 40H71.6584C67.8496 40 64.7619 36.9123 64.7619 33.1034V6.89655Z" fill="#1A73E8"/>
<path d="M71.9216 26.1297C71.9216 26.6446 71.7451 27.0639 71.392 27.3876C71.0536 27.7113 70.6416 27.8731 70.1561 27.8731C69.6559 27.8731 69.2366 27.7113 68.8982 27.3876C68.5598 27.0639 68.3906 26.6446 68.3906 26.1297C68.3906 25.6147 68.5598 25.1954 68.8982 24.8717C69.2366 24.5333 69.6559 24.3641 70.1561 24.3641C70.6416 24.3641 71.0536 24.5333 71.392 24.8717C71.7451 25.1954 71.9216 25.6147 71.9216 26.1297Z" fill="white"/>
<path d="M79.4471 12.1379C81.6687 12.1379 83.368 12.5425 84.5451 13.3517C85.7368 14.1609 86.3326 15.4262 86.3326 17.1476C86.3326 18.0451 86.1708 18.8175 85.8471 19.4648C85.5382 20.0975 85.0821 20.6198 84.4789 21.0317C83.8756 21.429 83.14 21.7232 82.272 21.9145C81.4039 22.1057 80.4108 22.2014 79.2926 22.2014H77.9023V27.5862H75.1216V12.5131C75.769 12.366 76.4825 12.2703 77.2623 12.2262C78.0568 12.1674 78.7851 12.1379 79.4471 12.1379ZM79.6457 14.5434C78.9395 14.5434 78.3584 14.5655 77.9023 14.6097V19.8179H79.2485C80.5874 19.8179 81.6172 19.634 82.3382 19.2662C83.0591 18.8837 83.4195 18.1701 83.4195 17.1255C83.4195 16.6253 83.3239 16.206 83.1326 15.8676C82.9414 15.5292 82.6766 15.2644 82.3382 15.0731C81.9998 14.8818 81.5952 14.7494 81.1244 14.6759C80.6683 14.5876 80.1754 14.5434 79.6457 14.5434Z" fill="white"/>
<path d="M99.3847 27.5862C98.8845 26.7476 98.3254 25.8501 97.7075 24.8938C97.0895 23.9228 96.4495 22.9517 95.7875 21.9807C95.1254 20.9949 94.4486 20.046 93.7571 19.1338C93.0803 18.2069 92.433 17.3756 91.8151 16.64V27.5862H89.0785V12.2924H91.3516C91.9401 12.9103 92.5728 13.646 93.2495 14.4993C93.9263 15.3379 94.6031 16.2133 95.2799 17.1255C95.9714 18.0377 96.6334 18.9572 97.2661 19.8841C97.9134 20.7963 98.4872 21.6497 98.9875 22.4441V12.2924H101.746V27.5862H99.3847Z" fill="white"/>
<path d="M112.772 14.389C111.198 14.389 109.991 14.8818 109.153 15.8676C108.329 16.8386 107.917 18.1922 107.917 19.9283C107.917 20.7522 108.012 21.5099 108.204 22.2014C108.41 22.8782 108.704 23.4593 109.086 23.9448C109.484 24.4303 109.969 24.8129 110.543 25.0924C111.131 25.3572 111.816 25.4897 112.595 25.4897C113.081 25.4897 113.5 25.4749 113.853 25.4455C114.206 25.4014 114.486 25.3499 114.692 25.291V19.7959H117.473V27.1448C117.09 27.292 116.443 27.4538 115.531 27.6303C114.618 27.8069 113.566 27.8952 112.375 27.8952C111.271 27.8952 110.263 27.7186 109.351 27.3655C108.439 27.0124 107.659 26.4975 107.012 25.8207C106.379 25.1439 105.886 24.3126 105.533 23.3269C105.18 22.3412 105.004 21.2083 105.004 19.9283C105.004 18.6483 105.195 17.5154 105.577 16.5297C105.975 15.5439 106.512 14.7126 107.189 14.0359C107.865 13.3444 108.66 12.8221 109.572 12.469C110.484 12.1159 111.455 11.9393 112.485 11.9393C113.191 11.9393 113.817 11.9908 114.361 12.0938C114.92 12.1821 115.398 12.2851 115.795 12.4028C116.193 12.5205 116.516 12.6455 116.766 12.7779C117.031 12.9103 117.215 13.006 117.318 13.0648L116.48 15.3379C116.038 15.0731 115.486 14.8524 114.824 14.6759C114.177 14.4846 113.493 14.389 112.772 14.389Z" fill="white"/>
</svg>
